<svg xmlns="http://www.w3.org/2000/svg" viewBox="0 0 240 240" width="240" height="240"><defs></defs><style>@keyframes pop{0%{transform:scale(.2);opacity:0}30%{opacity:1}100%{transform:scale(1);opacity:0}}.fw{transform-box:fill-box;transform-origin:center;animation:pop 2.8s ease-out infinite}.fw2{animation-delay:-1s}.fw3{animation-delay:-1.9s}</style><g class="fw"><path d="M94 90 L136 90" stroke="#F2C14E" stroke-width="3" stroke-linecap="round"/><circle cx="143" cy="90" r="2.6" fill="#F2C14E"/><path d="M92.9 95.4 L131.7 111.4" stroke="#F2C14E" stroke-width="3" stroke-linecap="round"/><circle cx="138.2" cy="114.1" r="2.6" fill="#F2C14E"/><path d="M89.9 99.9 L119.6 129.6" stroke="#F2C14E" stroke-width="3" stroke-linecap="round"/><circle cx="124.5" cy="134.5" r="2.6" fill="#F2C14E"/><path d="M85.4 102.9 L101.4 141.7" stroke="#F2C14E" stroke-width="3" stroke-linecap="round"/><circle cx="104.1" cy="148.2" r="2.6" fill="#F2C14E"/><path d="M80 104 L80 146" stroke="#F2C14E" stroke-width="3" stroke-linecap="round"/><circle cx="80" cy="153" r="2.6" fill="#F2C14E"/><path d="M74.6 102.9 L58.6 141.7" stroke="#F2C14E" stroke-width="3" stroke-linecap="round"/><circle cx="55.9" cy="148.2" r="2.6" fill="#F2C14E"/><path d="M70.1 99.9 L40.4 129.6" stroke="#F2C14E" stroke-width="3" stroke-linecap="round"/><circle cx="35.5" cy="134.5" r="2.6" fill="#F2C14E"/><path d="M67.1 95.4 L28.3 111.4" stroke="#F2C14E" stroke-width="3" stroke-linecap="round"/><circle cx="21.8" cy="114.1" r="2.6" fill="#F2C14E"/><path d="M66 90 L24 90" stroke="#F2C14E" stroke-width="3" stroke-linecap="round"/><circle cx="17" cy="90" r="2.6" fill="#F2C14E"/><path d="M67.1 84.6 L28.3 68.6" stroke="#F2C14E" stroke-width="3" stroke-linecap="round"/><circle cx="21.8" cy="65.9" r="2.6" fill="#F2C14E"/><path d="M70.1 80.1 L40.4 50.4" stroke="#F2C14E" stroke-width="3" stroke-linecap="round"/><circle cx="35.5" cy="45.5" r="2.6" fill="#F2C14E"/><path d="M74.6 77.1 L58.6 38.3" stroke="#F2C14E" stroke-width="3" stroke-linecap="round"/><circle cx="55.9" cy="31.8" r="2.6" fill="#F2C14E"/><path d="M80 76 L80 34" stroke="#F2C14E" stroke-width="3" stroke-linecap="round"/><circle cx="80" cy="27" r="2.6" fill="#F2C14E"/><path d="M85.4 77.1 L101.4 38.3" stroke="#F2C14E" stroke-width="3" stroke-linecap="round"/><circle cx="104.1" cy="31.8" r="2.6" fill="#F2C14E"/><path d="M89.9 80.1 L119.6 50.4" stroke="#F2C14E" stroke-width="3" stroke-linecap="round"/><circle cx="124.5" cy="45.5" r="2.6" fill="#F2C14E"/><path d="M92.9 84.6 L131.7 68.6" stroke="#F2C14E" stroke-width="3" stroke-linecap="round"/><circle cx="138.2" cy="65.9" r="2.6" fill="#F2C14E"/></g><g class="fw fw2"><path d="M179.5 70 L214 70" stroke="#FF6B9A" stroke-width="3" stroke-linecap="round"/><circle cx="221" cy="70" r="2.6" fill="#FF6B9A"/><path d="M178.6 74.4 L210.5 87.6" stroke="#FF6B9A" stroke-width="3" stroke-linecap="round"/><circle cx="217" cy="90.3" r="2.6" fill="#FF6B9A"/><path d="M176.1 78.1 L200.5 102.5" stroke="#FF6B9A" stroke-width="3" stroke-linecap="round"/><circle cx="205.5" cy="107.5" r="2.6" fill="#FF6B9A"/><path d="M172.4 80.6 L185.6 112.5" stroke="#FF6B9A" stroke-width="3" stroke-linecap="round"/><circle cx="188.3" cy="119" r="2.6" fill="#FF6B9A"/><path d="M168 81.5 L168 116" stroke="#FF6B9A" stroke-width="3" stroke-linecap="round"/><circle cx="168" cy="123" r="2.6" fill="#FF6B9A"/><path d="M163.6 80.6 L150.4 112.5" stroke="#FF6B9A" stroke-width="3" stroke-linecap="round"/><circle cx="147.7" cy="119" r="2.6" fill="#FF6B9A"/><path d="M159.9 78.1 L135.5 102.5" stroke="#FF6B9A" stroke-width="3" stroke-linecap="round"/><circle cx="130.5" cy="107.5" r="2.6" fill="#FF6B9A"/><path d="M157.4 74.4 L125.5 87.6" stroke="#FF6B9A" stroke-width="3" stroke-linecap="round"/><circle cx="119" cy="90.3" r="2.6" fill="#FF6B9A"/><path d="M156.5 70 L122 70" stroke="#FF6B9A" stroke-width="3" stroke-linecap="round"/><circle cx="115" cy="70" r="2.6" fill="#FF6B9A"/><path d="M157.4 65.6 L125.5 52.4" stroke="#FF6B9A" stroke-width="3" stroke-linecap="round"/><circle cx="119" cy="49.7" r="2.6" fill="#FF6B9A"/><path d="M159.9 61.9 L135.5 37.5" stroke="#FF6B9A" stroke-width="3" stroke-linecap="round"/><circle cx="130.5" cy="32.5" r="2.6" fill="#FF6B9A"/><path d="M163.6 59.4 L150.4 27.5" stroke="#FF6B9A" stroke-width="3" stroke-linecap="round"/><circle cx="147.7" cy="21" r="2.6" fill="#FF6B9A"/><path d="M168 58.5 L168 24" stroke="#FF6B9A" stroke-width="3" stroke-linecap="round"/><circle cx="168" cy="17" r="2.6" fill="#FF6B9A"/><path d="M172.4 59.4 L185.6 27.5" stroke="#FF6B9A" stroke-width="3" stroke-linecap="round"/><circle cx="188.3" cy="21" r="2.6" fill="#FF6B9A"/><path d="M176.1 61.9 L200.5 37.5" stroke="#FF6B9A" stroke-width="3" stroke-linecap="round"/><circle cx="205.5" cy="32.5" r="2.6" fill="#FF6B9A"/><path d="M178.6 65.6 L210.5 52.4" stroke="#FF6B9A" stroke-width="3" stroke-linecap="round"/><circle cx="217" cy="49.7" r="2.6" fill="#FF6B9A"/></g><g class="fw fw3"><path d="M160 160 L190 160" stroke="#4CC9F0" stroke-width="3" stroke-linecap="round"/><circle cx="197" cy="160" r="2.6" fill="#4CC9F0"/><path d="M159.2 163.8 L187 175.3" stroke="#4CC9F0" stroke-width="3" stroke-linecap="round"/><circle cx="193.4" cy="178" r="2.6" fill="#4CC9F0"/><path d="M157.1 167.1 L178.3 188.3" stroke="#4CC9F0" stroke-width="3" stroke-linecap="round"/><circle cx="183.2" cy="193.2" r="2.6" fill="#4CC9F0"/><path d="M153.8 169.2 L165.3 197" stroke="#4CC9F0" stroke-width="3" stroke-linecap="round"/><circle cx="168" cy="203.4" r="2.6" fill="#4CC9F0"/><path d="M150 170 L150 200" stroke="#4CC9F0" stroke-width="3" stroke-linecap="round"/><circle cx="150" cy="207" r="2.6" fill="#4CC9F0"/><path d="M146.2 169.2 L134.7 197" stroke="#4CC9F0" stroke-width="3" stroke-linecap="round"/><circle cx="132" cy="203.4" r="2.6" fill="#4CC9F0"/><path d="M142.9 167.1 L121.7 188.3" stroke="#4CC9F0" stroke-width="3" stroke-linecap="round"/><circle cx="116.8" cy="193.2" r="2.6" fill="#4CC9F0"/><path d="M140.8 163.8 L113 175.3" stroke="#4CC9F0" stroke-width="3" stroke-linecap="round"/><circle cx="106.6" cy="178" r="2.6" fill="#4CC9F0"/><path d="M140 160 L110 160" stroke="#4CC9F0" stroke-width="3" stroke-linecap="round"/><circle cx="103" cy="160" r="2.6" fill="#4CC9F0"/><path d="M140.8 156.2 L113 144.7" stroke="#4CC9F0" stroke-width="3" stroke-linecap="round"/><circle cx="106.6" cy="142" r="2.6" fill="#4CC9F0"/><path d="M142.9 152.9 L121.7 131.7" stroke="#4CC9F0" stroke-width="3" stroke-linecap="round"/><circle cx="116.8" cy="126.8" r="2.6" fill="#4CC9F0"/><path d="M146.2 150.8 L134.7 123" stroke="#4CC9F0" stroke-width="3" stroke-linecap="round"/><circle cx="132" cy="116.6" r="2.6" fill="#4CC9F0"/><path d="M150 150 L150 120" stroke="#4CC9F0" stroke-width="3" stroke-linecap="round"/><circle cx="150" cy="113" r="2.6" fill="#4CC9F0"/><path d="M153.8 150.8 L165.3 123" stroke="#4CC9F0" stroke-width="3" stroke-linecap="round"/><circle cx="168" cy="116.6" r="2.6" fill="#4CC9F0"/><path d="M157.1 152.9 L178.3 131.7" stroke="#4CC9F0" stroke-width="3" stroke-linecap="round"/><circle cx="183.2" cy="126.8" r="2.6" fill="#4CC9F0"/><path d="M159.2 156.2 L187 144.7" stroke="#4CC9F0" stroke-width="3" stroke-linecap="round"/><circle cx="193.4" cy="142" r="2.6" fill="#4CC9F0"/></g><path d="M40 182 L42 188 L48 190 L42 192 L40 198 L38 192 L32 190 L38 188Z" fill="#FFE29A"/><path d="M200 192 L202 198 L208 200 L202 202 L200 208 L198 202 L192 200 L198 198Z" fill="#FFE29A"/><path d="M120 22 L122 28 L128 30 L122 32 L120 38 L118 32 L112 30 L118 28Z" fill="#FFE29A"/><path d="M30 32 L32 38 L38 40 L32 42 L30 48 L28 42 L22 40 L28 38Z" fill="#FFE29A"/></svg>
