<svg xmlns="http://www.w3.org/2000/svg" viewBox="0 0 240 240" width="240" height="240"><defs><radialGradient id="sun" cx="50%" cy="50%" r="50%"><stop offset="0" stop-color="#FFE9A6"/><stop offset=".7" stop-color="#FFBE3B"/><stop offset="1" stop-color="#FF9A1F"/></radialGradient><linearGradient id="pot" x1="0" y1="0" x2="1" y2="0"><stop offset="0" stop-color="#8E3F14"/><stop offset=".42" stop-color="#E39252"/><stop offset=".7" stop-color="#C86B2E"/><stop offset="1" stop-color="#7E3510"/></linearGradient><linearGradient id="cane" x1="0" y1="0" x2="1" y2="0"><stop offset="0" stop-color="#3B1B43"/><stop offset=".5" stop-color="#93529F"/><stop offset="1" stop-color="#3B1B43"/></linearGradient><linearGradient id="leaf" x1="0" y1="0" x2="1" y2="1"><stop offset="0" stop-color="#2F8A3B"/><stop offset="1" stop-color="#1B5E20"/></linearGradient><linearGradient id="leaf2" x1="1" y1="0" x2="0" y2="1"><stop offset="0" stop-color="#4CAF50"/><stop offset="1" stop-color="#2E7D32"/></linearGradient></defs><style>@keyframes bub{0%,100%{transform:translateY(0)}50%{transform:translateY(-3px)}}.foam{animation:bub 2.6s ease-in-out infinite}@keyframes rot{to{transform:rotate(360deg)}}.rays{transform-origin:120px 86px;animation:rot 40s linear infinite}@keyframes steam{0%{opacity:0;transform:translateY(6px)}40%{opacity:.7}100%{opacity:0;transform:translateY(-16px)}}.st{animation:steam 3s ease-out infinite}.st2{animation-delay:-1s}.st3{animation-delay:-2s}</style><g class="rays"><path d="M120 86 L202 86 L201.6 94.2Z" fill="#FFC94D" opacity=".5"/><path d="M120 86 L197.1 114 L193.9 121.6Z" fill="#FFC94D" opacity=".5"/><path d="M120 86 L182.8 138.7 L177.2 144.7Z" fill="#FFC94D" opacity=".5"/><path d="M120 86 L161 157 L153.7 160.8Z" fill="#FFC94D" opacity=".5"/><path d="M120 86 L134.2 166.8 L126.1 167.8Z" fill="#FFC94D" opacity=".5"/><path d="M120 86 L105.8 166.8 L97.8 164.9Z" fill="#FFC94D" opacity=".5"/><path d="M120 86 L79 157 L72.1 152.6Z" fill="#FFC94D" opacity=".5"/><path d="M120 86 L57.2 138.7 L52.2 132.2Z" fill="#FFC94D" opacity=".5"/><path d="M120 86 L42.9 114 L40.5 106.2Z" fill="#FFC94D" opacity=".5"/><path d="M120 86 L38 86 L38.4 77.8Z" fill="#FFC94D" opacity=".5"/><path d="M120 86 L42.9 58 L46.1 50.4Z" fill="#FFC94D" opacity=".5"/><path d="M120 86 L57.2 33.3 L62.8 27.3Z" fill="#FFC94D" opacity=".5"/><path d="M120 86 L79 15 L86.3 11.2Z" fill="#FFC94D" opacity=".5"/><path d="M120 86 L105.8 5.2 L113.9 4.2Z" fill="#FFC94D" opacity=".5"/><path d="M120 86 L134.2 5.2 L142.2 7.1Z" fill="#FFC94D" opacity=".5"/><path d="M120 86 L161 15 L167.9 19.4Z" fill="#FFC94D" opacity=".5"/><path d="M120 86 L182.8 33.3 L187.8 39.8Z" fill="#FFC94D" opacity=".5"/><path d="M120 86 L197.1 58 L199.5 65.8Z" fill="#FFC94D" opacity=".5"/></g><circle cx="120" cy="86" r="44" fill="url(#sun)"/><path d="M70 226 L34 44" stroke="url(#cane)" stroke-width="10" stroke-linecap="round"/><path d="M57.5 193.2 h12" stroke="#2A1230" stroke-width="2"/><path d="M51 160.5 h12" stroke="#2A1230" stroke-width="2"/><path d="M44.6 127.7 h12" stroke="#2A1230" stroke-width="2"/><path d="M38.1 95 h12" stroke="#2A1230" stroke-width="2"/><g transform="translate(34 46) rotate(155)"><g transform="translate(0 0) rotate(0)"><path d="M0 0 C11.4 13 10.3 36.4 0 52 C-10.3 36.4 -11.4 13 0 0Z" fill="url(#leaf)"/><path d="M0 2 L0 47.8" stroke="#A5D6A7" stroke-width="1" opacity=".7"/></g></g><g transform="translate(34 46) rotate(200)"><g transform="translate(0 0) rotate(0)"><path d="M0 0 C10.6 12 9.5 33.6 0 48 C-9.5 33.6 -10.6 12 0 0Z" fill="url(#leaf2)"/><path d="M0 2 L0 44.2" stroke="#A5D6A7" stroke-width="1" opacity=".7"/></g></g><g transform="translate(34 46) rotate(110)"><g transform="translate(0 0) rotate(0)"><path d="M0 0 C9.7 11 8.7 30.8 0 44 C-8.7 30.8 -9.7 11 0 0Z" fill="url(#leaf)"/><path d="M0 2 L0 40.5" stroke="#A5D6A7" stroke-width="1" opacity=".7"/></g></g><g transform="translate(34 46) rotate(240)"><g transform="translate(0 0) rotate(0)"><path d="M0 0 C8.8 10 7.9 28 0 40 C-7.9 28 -8.8 10 0 0Z" fill="url(#leaf2)"/><path d="M0 2 L0 36.8" stroke="#A5D6A7" stroke-width="1" opacity=".7"/></g></g><path d="M170 226 L206 44" stroke="url(#cane)" stroke-width="10" stroke-linecap="round"/><path d="M170.5 193.2 h12" stroke="#2A1230" stroke-width="2"/><path d="M177 160.5 h12" stroke="#2A1230" stroke-width="2"/><path d="M183.4 127.7 h12" stroke="#2A1230" stroke-width="2"/><path d="M189.9 95 h12" stroke="#2A1230" stroke-width="2"/><g transform="translate(206 46) rotate(155)"><g transform="translate(0 0) rotate(0)"><path d="M0 0 C11.4 13 10.3 36.4 0 52 C-10.3 36.4 -11.4 13 0 0Z" fill="url(#leaf)"/><path d="M0 2 L0 47.8" stroke="#A5D6A7" stroke-width="1" opacity=".7"/></g></g><g transform="translate(206 46) rotate(200)"><g transform="translate(0 0) rotate(0)"><path d="M0 0 C10.6 12 9.5 33.6 0 48 C-9.5 33.6 -10.6 12 0 0Z" fill="url(#leaf2)"/><path d="M0 2 L0 44.2" stroke="#A5D6A7" stroke-width="1" opacity=".7"/></g></g><g transform="translate(206 46) rotate(250)"><g transform="translate(0 0) rotate(0)"><path d="M0 0 C9.7 11 8.7 30.8 0 44 C-8.7 30.8 -9.7 11 0 0Z" fill="url(#leaf)"/><path d="M0 2 L0 40.5" stroke="#A5D6A7" stroke-width="1" opacity=".7"/></g></g><g transform="translate(206 46) rotate(120)"><g transform="translate(0 0) rotate(0)"><path d="M0 0 C8.8 10 7.9 28 0 40 C-7.9 28 -8.8 10 0 0Z" fill="url(#leaf2)"/><path d="M0 2 L0 36.8" stroke="#A5D6A7" stroke-width="1" opacity=".7"/></g></g><ellipse cx="120" cy="226" rx="76" ry="9" fill="#000" opacity=".16"/><path d="M92 128 C60 140 46 166 50 188 C55 214 84 226 120 226 C156 226 185 214 190 188 C194 166 180 140 148 128 Z" fill="url(#pot)"/><path d="M86 118 H154 C156 122 156 128 150 131 H90 C84 128 84 122 86 118Z" fill="#B65A26"/><ellipse cx="120" cy="118" rx="35" ry="6" fill="#6E2E0E"/><path d="M52 176 Q120 196 188 176" stroke="#FBF2DD" stroke-width="7" fill="none" stroke-linecap="round"/><circle cx="59.6" cy="177.7" r="2.2" fill="#C0392B"/><circle cx="74.7" cy="181" r="2.2" fill="#C0392B"/><circle cx="89.8" cy="183.7" r="2.2" fill="#C0392B"/><circle cx="104.9" cy="185.4" r="2.2" fill="#C0392B"/><circle cx="120" cy="186" r="2.2" fill="#C0392B"/><circle cx="135.1" cy="185.4" r="2.2" fill="#C0392B"/><circle cx="150.2" cy="183.7" r="2.2" fill="#C0392B"/><circle cx="165.3" cy="181" r="2.2" fill="#C0392B"/><circle cx="180.4" cy="177.7" r="2.2" fill="#C0392B"/><path d="M60 160 Q120 172 180 160" stroke="#F3C13A" stroke-width="2" fill="none" stroke-dasharray="4 4"/><g transform="translate(92 131) rotate(35)"><path d="M0 0 C7.5 8.5 6.7 23.8 0 34 C-6.7 23.8 -7.5 8.5 0 0Z" fill="url(#leaf2)"/><path d="M0 2 L0 31.3" stroke="#A5D6A7" stroke-width="1" opacity=".7"/></g><g transform="translate(148 131) rotate(-35)"><path d="M0 0 C7.5 8.5 6.7 23.8 0 34 C-6.7 23.8 -7.5 8.5 0 0Z" fill="url(#leaf)"/><path d="M0 2 L0 31.3" stroke="#A5D6A7" stroke-width="1" opacity=".7"/></g><path d="M88 131 Q120 140 152 131" stroke="#F4C430" stroke-width="3" fill="none"/><g class="foam"><path d="M84 120 C78 104 94 92 104 98 C106 84 124 80 130 92 C138 84 156 92 152 104 C162 106 162 120 156 122 C158 132 154 142 150 146 C146 140 146 132 142 128 L98 128 C96 134 94 142 90 148 C86 140 84 130 84 120Z" fill="#FFFDF6"/><circle cx="106" cy="100" r="3" fill="#FFF"/><circle cx="134" cy="96" r="2.5" fill="#FFF"/><circle cx="120" cy="90" r="2" fill="#FFF"/><circle cx="112" cy="108" r="1.6" fill="#EADBB5"/><circle cx="128" cy="110" r="1.6" fill="#EADBB5"/><circle cx="140" cy="104" r="1.6" fill="#EADBB5"/></g><path class="st st1" d="M104 78 c-6 -8 6 -14 0 -22" stroke="#FFF7E6" stroke-width="3" fill="none" stroke-linecap="round" opacity=".6"/><path class="st st2" d="M120 78 c-6 -8 6 -14 0 -22" stroke="#FFF7E6" stroke-width="3" fill="none" stroke-linecap="round" opacity=".6"/><path class="st st3" d="M136 78 c-6 -8 6 -14 0 -22" stroke="#FFF7E6" stroke-width="3" fill="none" stroke-linecap="round" opacity=".6"/></svg>
