<svg xmlns="http://www.w3.org/2000/svg" viewBox="0 0 220 96" width="220" height="96"><defs><radialGradient id="mgO" cx="50%" cy="45%" r="60%"><stop offset="0" stop-color="#FFC233"/><stop offset=".6" stop-color="#F59E0B"/><stop offset="1" stop-color="#D9690A"/></radialGradient><radialGradient id="mgY" cx="50%" cy="45%" r="60%"><stop offset="0" stop-color="#FFE680"/><stop offset=".6" stop-color="#FCC419"/><stop offset="1" stop-color="#E8A10C"/></radialGradient></defs><path d="M0 8 Q110 92 220 8" stroke="#B7791F" stroke-width="1.5" fill="none"/><circle cx="5.3" cy="8" r="3.9" fill="url(#mgY)"/><circle cx="4.3" cy="11.1" r="3.9" fill="url(#mgY)"/><circle cx="1.6" cy="13" r="3.9" fill="url(#mgY)"/><circle cx="-1.6" cy="13" r="3.9" fill="url(#mgY)"/><circle cx="-4.3" cy="11.1" r="3.9" fill="url(#mgY)"/><circle cx="-5.3" cy="8" r="3.9" fill="url(#mgY)"/><circle cx="-4.3" cy="4.9" r="3.9" fill="url(#mgY)"/><circle cx="-1.6" cy="3" r="3.9" fill="url(#mgY)"/><circle cx="1.6" cy="3" r="3.9" fill="url(#mgY)"/><circle cx="4.3" cy="4.9" r="3.9" fill="url(#mgY)"/><circle cx="0" cy="8" r="4.7" fill="url(#mgY)"/><circle cx="-1.3" cy="6.5" r="1.5" fill="#FFF3C4" opacity=".55"/><circle cx="19.9" cy="18.5" r="3.9" fill="url(#mgO)"/><circle cx="18.9" cy="21.6" r="3.9" fill="url(#mgO)"/><circle cx="16.3" cy="23.5" r="3.9" fill="url(#mgO)"/><circle cx="13" cy="23.5" r="3.9" fill="url(#mgO)"/><circle cx="10.4" cy="21.6" r="3.9" fill="url(#mgO)"/><circle cx="9.4" cy="18.5" r="3.9" fill="url(#mgO)"/><circle cx="10.4" cy="15.4" r="3.9" fill="url(#mgO)"/><circle cx="13" cy="13.4" r="3.9" fill="url(#mgO)"/><circle cx="16.3" cy="13.4" r="3.9" fill="url(#mgO)"/><circle cx="18.9" cy="15.4" r="3.9" fill="url(#mgO)"/><circle cx="14.7" cy="18.5" r="4.7" fill="url(#mgO)"/><circle cx="13.4" cy="16.9" r="1.5" fill="#FFF3C4" opacity=".55"/><circle cx="34.6" cy="27.4" r="3.9" fill="url(#mgY)"/><circle cx="33.6" cy="30.5" r="3.9" fill="url(#mgY)"/><circle cx="31" cy="32.4" r="3.9" fill="url(#mgY)"/><circle cx="27.7" cy="32.4" r="3.9" fill="url(#mgY)"/><circle cx="25.1" cy="30.5" r="3.9" fill="url(#mgY)"/><circle cx="24.1" cy="27.4" r="3.9" fill="url(#mgY)"/><circle cx="25.1" cy="24.3" r="3.9" fill="url(#mgY)"/><circle cx="27.7" cy="22.4" r="3.9" fill="url(#mgY)"/><circle cx="31" cy="22.4" r="3.9" fill="url(#mgY)"/><circle cx="33.6" cy="24.3" r="3.9" fill="url(#mgY)"/><circle cx="29.3" cy="27.4" r="4.7" fill="url(#mgY)"/><circle cx="28.1" cy="25.9" r="1.5" fill="#FFF3C4" opacity=".55"/><circle cx="49.3" cy="34.9" r="3.9" fill="url(#mgO)"/><circle cx="48.3" cy="38" r="3.9" fill="url(#mgO)"/><circle cx="45.6" cy="39.9" r="3.9" fill="url(#mgO)"/><circle cx="42.4" cy="39.9" r="3.9" fill="url(#mgO)"/><circle cx="39.7" cy="38" r="3.9" fill="url(#mgO)"/><circle cx="38.7" cy="34.9" r="3.9" fill="url(#mgO)"/><circle cx="39.7" cy="31.8" r="3.9" fill="url(#mgO)"/><circle cx="42.4" cy="29.9" r="3.9" fill="url(#mgO)"/><circle cx="45.6" cy="29.9" r="3.9" fill="url(#mgO)"/><circle cx="48.3" cy="31.8" r="3.9" fill="url(#mgO)"/><circle cx="44" cy="34.9" r="4.7" fill="url(#mgO)"/><circle cx="42.7" cy="33.4" r="1.5" fill="#FFF3C4" opacity=".55"/><circle cx="63.9" cy="40.9" r="3.9" fill="url(#mgY)"/><circle cx="62.9" cy="44" r="3.9" fill="url(#mgY)"/><circle cx="60.3" cy="45.9" r="3.9" fill="url(#mgY)"/><circle cx="57" cy="45.9" r="3.9" fill="url(#mgY)"/><circle cx="54.4" cy="44" r="3.9" fill="url(#mgY)"/><circle cx="53.4" cy="40.9" r="3.9" fill="url(#mgY)"/><circle cx="54.4" cy="37.8" r="3.9" fill="url(#mgY)"/><circle cx="57" cy="35.8" r="3.9" fill="url(#mgY)"/><circle cx="60.3" cy="35.8" r="3.9" fill="url(#mgY)"/><circle cx="62.9" cy="37.8" r="3.9" fill="url(#mgY)"/><circle cx="58.7" cy="40.9" r="4.7" fill="url(#mgY)"/><circle cx="57.4" cy="39.3" r="1.5" fill="#FFF3C4" opacity=".55"/><circle cx="78.6" cy="45.3" r="3.9" fill="url(#mgO)"/><circle cx="77.6" cy="48.4" r="3.9" fill="url(#mgO)"/><circle cx="75" cy="50.3" r="3.9" fill="url(#mgO)"/><circle cx="71.7" cy="50.3" r="3.9" fill="url(#mgO)"/><circle cx="69.1" cy="48.4" r="3.9" fill="url(#mgO)"/><circle cx="68.1" cy="45.3" r="3.9" fill="url(#mgO)"/><circle cx="69.1" cy="42.2" r="3.9" fill="url(#mgO)"/><circle cx="71.7" cy="40.3" r="3.9" fill="url(#mgO)"/><circle cx="75" cy="40.3" r="3.9" fill="url(#mgO)"/><circle cx="77.6" cy="42.2" r="3.9" fill="url(#mgO)"/><circle cx="73.3" cy="45.3" r="4.7" fill="url(#mgO)"/><circle cx="72.1" cy="43.8" r="1.5" fill="#FFF3C4" opacity=".55"/><circle cx="93.3" cy="48.3" r="3.9" fill="url(#mgY)"/><circle cx="92.3" cy="51.4" r="3.9" fill="url(#mgY)"/><circle cx="89.6" cy="53.3" r="3.9" fill="url(#mgY)"/><circle cx="86.4" cy="53.3" r="3.9" fill="url(#mgY)"/><circle cx="83.7" cy="51.4" r="3.9" fill="url(#mgY)"/><circle cx="82.7" cy="48.3" r="3.9" fill="url(#mgY)"/><circle cx="83.7" cy="45.2" r="3.9" fill="url(#mgY)"/><circle cx="86.4" cy="43.3" r="3.9" fill="url(#mgY)"/><circle cx="89.6" cy="43.3" r="3.9" fill="url(#mgY)"/><circle cx="92.3" cy="45.2" r="3.9" fill="url(#mgY)"/><circle cx="88" cy="48.3" r="4.7" fill="url(#mgY)"/><circle cx="86.7" cy="46.8" r="1.5" fill="#FFF3C4" opacity=".55"/><circle cx="107.9" cy="49.8" r="3.9" fill="url(#mgO)"/><circle cx="106.9" cy="52.9" r="3.9" fill="url(#mgO)"/><circle cx="104.3" cy="54.8" r="3.9" fill="url(#mgO)"/><circle cx="101" cy="54.8" r="3.9" fill="url(#mgO)"/><circle cx="98.4" cy="52.9" r="3.9" fill="url(#mgO)"/><circle cx="97.4" cy="49.8" r="3.9" fill="url(#mgO)"/><circle cx="98.4" cy="46.7" r="3.9" fill="url(#mgO)"/><circle cx="101" cy="44.8" r="3.9" fill="url(#mgO)"/><circle cx="104.3" cy="44.8" r="3.9" fill="url(#mgO)"/><circle cx="106.9" cy="46.7" r="3.9" fill="url(#mgO)"/><circle cx="102.7" cy="49.8" r="4.7" fill="url(#mgO)"/><circle cx="101.4" cy="48.3" r="1.5" fill="#FFF3C4" opacity=".55"/><circle cx="122.6" cy="49.8" r="3.9" fill="url(#mgY)"/><circle cx="121.6" cy="52.9" r="3.9" fill="url(#mgY)"/><circle cx="119" cy="54.8" r="3.9" fill="url(#mgY)"/><circle cx="115.7" cy="54.8" r="3.9" fill="url(#mgY)"/><circle cx="113.1" cy="52.9" r="3.9" fill="url(#mgY)"/><circle cx="112.1" cy="49.8" r="3.9" fill="url(#mgY)"/><circle cx="113.1" cy="46.7" r="3.9" fill="url(#mgY)"/><circle cx="115.7" cy="44.8" r="3.9" fill="url(#mgY)"/><circle cx="119" cy="44.8" r="3.9" fill="url(#mgY)"/><circle cx="121.6" cy="46.7" r="3.9" fill="url(#mgY)"/><circle cx="117.3" cy="49.8" r="4.7" fill="url(#mgY)"/><circle cx="116.1" cy="48.3" r="1.5" fill="#FFF3C4" opacity=".55"/><circle cx="137.3" cy="48.3" r="3.9" fill="url(#mgO)"/><circle cx="136.3" cy="51.4" r="3.9" fill="url(#mgO)"/><circle cx="133.6" cy="53.3" r="3.9" fill="url(#mgO)"/><circle cx="130.4" cy="53.3" r="3.9" fill="url(#mgO)"/><circle cx="127.7" cy="51.4" r="3.9" fill="url(#mgO)"/><circle cx="126.7" cy="48.3" r="3.9" fill="url(#mgO)"/><circle cx="127.7" cy="45.2" r="3.9" fill="url(#mgO)"/><circle cx="130.4" cy="43.3" r="3.9" fill="url(#mgO)"/><circle cx="133.6" cy="43.3" r="3.9" fill="url(#mgO)"/><circle cx="136.3" cy="45.2" r="3.9" fill="url(#mgO)"/><circle cx="132" cy="48.3" r="4.7" fill="url(#mgO)"/><circle cx="130.7" cy="46.8" r="1.5" fill="#FFF3C4" opacity=".55"/><circle cx="151.9" cy="45.3" r="3.9" fill="url(#mgY)"/><circle cx="150.9" cy="48.4" r="3.9" fill="url(#mgY)"/><circle cx="148.3" cy="50.3" r="3.9" fill="url(#mgY)"/><circle cx="145" cy="50.3" r="3.9" fill="url(#mgY)"/><circle cx="142.4" cy="48.4" r="3.9" fill="url(#mgY)"/><circle cx="141.4" cy="45.3" r="3.9" fill="url(#mgY)"/><circle cx="142.4" cy="42.2" r="3.9" fill="url(#mgY)"/><circle cx="145" cy="40.3" r="3.9" fill="url(#mgY)"/><circle cx="148.3" cy="40.3" r="3.9" fill="url(#mgY)"/><circle cx="150.9" cy="42.2" r="3.9" fill="url(#mgY)"/><circle cx="146.7" cy="45.3" r="4.7" fill="url(#mgY)"/><circle cx="145.4" cy="43.8" r="1.5" fill="#FFF3C4" opacity=".55"/><circle cx="166.6" cy="40.9" r="3.9" fill="url(#mgO)"/><circle cx="165.6" cy="44" r="3.9" fill="url(#mgO)"/><circle cx="163" cy="45.9" r="3.9" fill="url(#mgO)"/><circle cx="159.7" cy="45.9" r="3.9" fill="url(#mgO)"/><circle cx="157.1" cy="44" r="3.9" fill="url(#mgO)"/><circle cx="156.1" cy="40.9" r="3.9" fill="url(#mgO)"/><circle cx="157.1" cy="37.8" r="3.9" fill="url(#mgO)"/><circle cx="159.7" cy="35.8" r="3.9" fill="url(#mgO)"/><circle cx="163" cy="35.8" r="3.9" fill="url(#mgO)"/><circle cx="165.6" cy="37.8" r="3.9" fill="url(#mgO)"/><circle cx="161.3" cy="40.9" r="4.7" fill="url(#mgO)"/><circle cx="160.1" cy="39.3" r="1.5" fill="#FFF3C4" opacity=".55"/><circle cx="181.3" cy="34.9" r="3.9" fill="url(#mgY)"/><circle cx="180.3" cy="38" r="3.9" fill="url(#mgY)"/><circle cx="177.6" cy="39.9" r="3.9" fill="url(#mgY)"/><circle cx="174.4" cy="39.9" r="3.9" fill="url(#mgY)"/><circle cx="171.7" cy="38" r="3.9" fill="url(#mgY)"/><circle cx="170.7" cy="34.9" r="3.9" fill="url(#mgY)"/><circle cx="171.7" cy="31.8" r="3.9" fill="url(#mgY)"/><circle cx="174.4" cy="29.9" r="3.9" fill="url(#mgY)"/><circle cx="177.6" cy="29.9" r="3.9" fill="url(#mgY)"/><circle cx="180.3" cy="31.8" r="3.9" fill="url(#mgY)"/><circle cx="176" cy="34.9" r="4.7" fill="url(#mgY)"/><circle cx="174.7" cy="33.3" r="1.5" fill="#FFF3C4" opacity=".55"/><circle cx="195.9" cy="27.4" r="3.9" fill="url(#mgO)"/><circle cx="194.9" cy="30.5" r="3.9" fill="url(#mgO)"/><circle cx="192.3" cy="32.4" r="3.9" fill="url(#mgO)"/><circle cx="189" cy="32.4" r="3.9" fill="url(#mgO)"/><circle cx="186.4" cy="30.5" r="3.9" fill="url(#mgO)"/><circle cx="185.4" cy="27.4" r="3.9" fill="url(#mgO)"/><circle cx="186.4" cy="24.3" r="3.9" fill="url(#mgO)"/><circle cx="189" cy="22.4" r="3.9" fill="url(#mgO)"/><circle cx="192.3" cy="22.4" r="3.9" fill="url(#mgO)"/><circle cx="194.9" cy="24.3" r="3.9" fill="url(#mgO)"/><circle cx="190.7" cy="27.4" r="4.7" fill="url(#mgO)"/><circle cx="189.4" cy="25.9" r="1.5" fill="#FFF3C4" opacity=".55"/><circle cx="210.6" cy="18.5" r="3.9" fill="url(#mgY)"/><circle cx="209.6" cy="21.6" r="3.9" fill="url(#mgY)"/><circle cx="207" cy="23.5" r="3.9" fill="url(#mgY)"/><circle cx="203.7" cy="23.5" r="3.9" fill="url(#mgY)"/><circle cx="201.1" cy="21.6" r="3.9" fill="url(#mgY)"/><circle cx="200.1" cy="18.5" r="3.9" fill="url(#mgY)"/><circle cx="201.1" cy="15.4" r="3.9" fill="url(#mgY)"/><circle cx="203.7" cy="13.4" r="3.9" fill="url(#mgY)"/><circle cx="207" cy="13.4" r="3.9" fill="url(#mgY)"/><circle cx="209.6" cy="15.4" r="3.9" fill="url(#mgY)"/><circle cx="205.3" cy="18.5" r="4.7" fill="url(#mgY)"/><circle cx="204.1" cy="16.9" r="1.5" fill="#FFF3C4" opacity=".55"/><circle cx="225.3" cy="8" r="3.9" fill="url(#mgO)"/><circle cx="224.3" cy="11.1" r="3.9" fill="url(#mgO)"/><circle cx="221.6" cy="13" r="3.9" fill="url(#mgO)"/><circle cx="218.4" cy="13" r="3.9" fill="url(#mgO)"/><circle cx="215.7" cy="11.1" r="3.9" fill="url(#mgO)"/><circle cx="214.7" cy="8" r="3.9" fill="url(#mgO)"/><circle cx="215.7" cy="4.9" r="3.9" fill="url(#mgO)"/><circle cx="218.4" cy="3" r="3.9" fill="url(#mgO)"/><circle cx="221.6" cy="3" r="3.9" fill="url(#mgO)"/><circle cx="224.3" cy="4.9" r="3.9" fill="url(#mgO)"/><circle cx="220" cy="8" r="4.7" fill="url(#mgO)"/><circle cx="218.7" cy="6.5" r="1.5" fill="#FFF3C4" opacity=".55"/><circle cx="0" cy="8" r="9" fill="#C0392B"/><circle cx="0" cy="8" r="4" fill="#F5B7B1"/><circle cx="220" cy="8" r="9" fill="#C0392B"/><circle cx="220" cy="8" r="4" fill="#F5B7B1"/><path d="M110 50 V92" stroke="#B7791F" stroke-width="1.2"/><circle cx="114.3" cy="62" r="3.2" fill="url(#mgY)"/><circle cx="113.5" cy="64.6" r="3.2" fill="url(#mgY)"/><circle cx="111.3" cy="66.1" r="3.2" fill="url(#mgY)"/><circle cx="108.7" cy="66.1" r="3.2" fill="url(#mgY)"/><circle cx="106.5" cy="64.6" r="3.2" fill="url(#mgY)"/><circle cx="105.7" cy="62" r="3.2" fill="url(#mgY)"/><circle cx="106.5" cy="59.4" r="3.2" fill="url(#mgY)"/><circle cx="108.7" cy="57.9" r="3.2" fill="url(#mgY)"/><circle cx="111.3" cy="57.9" r="3.2" fill="url(#mgY)"/><circle cx="113.5" cy="59.4" r="3.2" fill="url(#mgY)"/><circle cx="110" cy="62" r="3.9" fill="url(#mgY)"/><circle cx="109" cy="60.7" r="1.3" fill="#FFF3C4" opacity=".55"/><circle cx="113.7" cy="76" r="2.8" fill="url(#mgO)"/><circle cx="113" cy="78.2" r="2.8" fill="url(#mgO)"/><circle cx="111.1" cy="79.5" r="2.8" fill="url(#mgO)"/><circle cx="108.9" cy="79.5" r="2.8" fill="url(#mgO)"/><circle cx="107" cy="78.2" r="2.8" fill="url(#mgO)"/><circle cx="106.3" cy="76" r="2.8" fill="url(#mgO)"/><circle cx="107" cy="73.8" r="2.8" fill="url(#mgO)"/><circle cx="108.9" cy="72.5" r="2.8" fill="url(#mgO)"/><circle cx="111.1" cy="72.5" r="2.8" fill="url(#mgO)"/><circle cx="113" cy="73.8" r="2.8" fill="url(#mgO)"/><circle cx="110" cy="76" r="3.3" fill="url(#mgO)"/><circle cx="109.1" cy="74.9" r="1.1" fill="#FFF3C4" opacity=".55"/><circle cx="113.1" cy="89" r="2.3" fill="url(#mgY)"/><circle cx="112.5" cy="90.8" r="2.3" fill="url(#mgY)"/><circle cx="111" cy="91.9" r="2.3" fill="url(#mgY)"/><circle cx="109" cy="91.9" r="2.3" fill="url(#mgY)"/><circle cx="107.5" cy="90.8" r="2.3" fill="url(#mgY)"/><circle cx="106.9" cy="89" r="2.3" fill="url(#mgY)"/><circle cx="107.5" cy="87.2" r="2.3" fill="url(#mgY)"/><circle cx="109" cy="86.1" r="2.3" fill="url(#mgY)"/><circle cx="111" cy="86.1" r="2.3" fill="url(#mgY)"/><circle cx="112.5" cy="87.2" r="2.3" fill="url(#mgY)"/><circle cx="110" cy="89" r="2.8" fill="url(#mgY)"/><circle cx="109.2" cy="88.1" r="0.9" fill="#FFF3C4" opacity=".55"/></svg>
